<svg width="17" height="17" viewBox="0 0 17 17" fill="none" xmlns="http://www.w3.org/2000/svg">
<g clip-path="url(#clip0_541_3455)">
<path d="M3.2682 15.5881H2.26254C2.06251 15.5881 1.87066 15.5087 1.72921 15.3672C1.58777 15.2258 1.5083 15.0339 1.5083 14.8339V10.3084C1.5083 10.1084 1.58777 9.91656 1.72921 9.77511C1.87066 9.63366 2.06251 9.5542 2.26254 9.5542H3.2682C3.46824 9.5542 3.66008 9.63366 3.80153 9.77511C3.94298 9.91656 4.02245 10.1084 4.02245 10.3084V14.8339C4.02245 15.0339 3.94298 15.2258 3.80153 15.3672C3.66008 15.5087 3.46824 15.5881 3.2682 15.5881Z" fill="white" fill-opacity="0.86"/>
<path d="M10.3082 15.5873H9.30258C9.10255 15.5873 8.9107 15.5078 8.76925 15.3664C8.6278 15.2249 8.54834 15.0331 8.54834 14.8331V7.29062C8.54834 7.09058 8.6278 6.89874 8.76925 6.75729C8.9107 6.61584 9.10255 6.53638 9.30258 6.53638H10.3082C10.5083 6.53638 10.7001 6.61584 10.8416 6.75729C10.983 6.89874 11.0625 7.09058 11.0625 7.29062V14.8331C11.0625 15.0331 10.983 15.2249 10.8416 15.3664C10.7001 15.5078 10.5083 15.5873 10.3082 15.5873Z" fill="white" fill-opacity="0.86"/>
<path d="M13.8278 15.5877H12.8221C12.6221 15.5877 12.4302 15.5082 12.2888 15.3668C12.1473 15.2253 12.0679 15.0335 12.0679 14.8334V3.77121C12.0679 3.57117 12.1473 3.37933 12.2888 3.23788C12.4302 3.09643 12.6221 3.01697 12.8221 3.01697H13.8278C14.0278 3.01697 14.2197 3.09643 14.3611 3.23788C14.5026 3.37933 14.582 3.57117 14.582 3.77121V14.8334C14.582 15.0335 14.5026 15.2253 14.3611 15.3668C14.2197 15.5082 14.0278 15.5877 13.8278 15.5877Z" fill="white" fill-opacity="0.86"/>
<path d="M6.78822 15.5874H5.78256C5.58253 15.5874 5.39068 15.508 5.24923 15.3665C5.10778 15.2251 5.02832 15.0332 5.02832 14.8332V1.25681C5.02832 1.05677 5.10778 0.864924 5.24923 0.723476C5.39068 0.582028 5.58253 0.502563 5.78256 0.502563H6.78822C6.98826 0.502563 7.1801 0.582028 7.32155 0.723476C7.463 0.864924 7.54246 1.05677 7.54247 1.25681V14.8332C7.54246 15.0332 7.463 15.2251 7.32155 15.3665C7.1801 15.508 6.98826 15.5874 6.78822 15.5874Z" fill="white" fill-opacity="0.86"/>
</g>
<defs>
<clipPath id="clip0_541_3455">
<rect width="16.0905" height="16.0905" stroke="#FFFFFF" fill="none" stroke-width="2"/>
</clipPath>
</defs>
</svg>
