<svg width="16" height="16" viewBox="0 0 16 16" fill="none" xmlns="http://www.w3.org/2000/svg">
<path fill-rule="evenodd" clip-rule="evenodd" d="M5.4393 7.65007H10.1016V6.12006H5.4393V7.65007ZM5.4393 4.59004H10.1016V3.06003H5.4393V4.59004ZM12.4327 3.06003V1.53001C13.2898 1.53001 13.9868 2.21699 13.9868 3.06003H12.4327ZM10.8786 12.2401C10.8786 13.0839 10.1816 13.7701 9.32451 13.7701V10.7101H4.66225V3.06003C4.66225 2.21699 5.35926 1.53001 6.21634 1.53001H10.8786V12.2401ZM7.77042 13.7701H3.10817C2.25109 13.7701 1.55408 13.0839 1.55408 12.2401H7.77042V13.7701ZM12.4327 0H6.21634C4.49985 0 3.10817 1.37013 3.10817 3.06003V10.7101H0V12.2401C0 13.9308 1.39168 15.3001 3.10817 15.3001H9.32451C11.041 15.3001 12.4327 13.9308 12.4327 12.2401V4.59004H15.5408V3.06003C15.5408 1.37013 14.1492 0 12.4327 0Z" fill="white"/>
</svg>
