<svg width="268" height="149" viewBox="0 0 268 149" fill="none" xmlns="http://www.w3.org/2000/svg">
<g filter="url(#filter0_d_820_940)">
<mask id="path-1-inside-1_820_940" fill="white">
<path d="M239 0C252.807 1.28852e-06 264 11.1929 264 25V116C264 129.807 252.807 141 239 141H29C15.1929 141 4 129.807 4 116V25C4 11.1929 15.1929 2.41612e-07 29 0H92.0988C95.1041 0 97.3867 2.67828 97.3867 5.68359C97.3868 26.2929 113.555 43 133.5 43C153.445 43 169.613 26.2929 169.613 5.68359C169.613 2.67824 171.895 0 174.9 0H239Z"/>
</mask>
<path d="M239 0C252.807 1.28852e-06 264 11.1929 264 25V116C264 129.807 252.807 141 239 141H29C15.1929 141 4 129.807 4 116V25C4 11.1929 15.1929 2.41612e-07 29 0H92.0988C95.1041 0 97.3867 2.67828 97.3867 5.68359C97.3868 26.2929 113.555 43 133.5 43C153.445 43 169.613 26.2929 169.613 5.68359C169.613 2.67824 171.895 0 174.9 0H239Z" fill="#484848"/>
<path d="M239 0V-1V-1V0ZM264 25H265V25H264ZM264 116H265V116H264ZM239 141V142V142V141ZM29 141V142V142V141ZM4 116H3V116H4ZM4 25H3V25H4ZM29 0V-1V-1V0ZM133.5 43V44V44V43ZM239 0V1C252.255 1 263 11.7452 263 25H264H265C265 10.6406 253.359 -0.999999 239 -1V0ZM264 25H263V116H264H265V25H264ZM264 116H263C263 129.255 252.255 140 239 140V141V142C253.359 142 265 130.359 265 116H264ZM239 141V140H29V141V142H239V141ZM29 141V140C15.7452 140 5 129.255 5 116H4H3C3 130.359 14.6406 142 29 142V141ZM4 116H5V25H4H3V116H4ZM4 25H5C5 11.7452 15.7452 1 29 1V0V-1C14.6406 -1 3 10.6406 3 25H4ZM29 0V1H92.0988V0V-1H29V0ZM97.3867 5.68359L96.3867 5.6836C96.3868 26.814 112.973 44 133.5 44V43V42C114.138 42 98.3868 25.7718 98.3867 5.68359L97.3867 5.68359ZM133.5 43V44C154.027 44 170.613 26.814 170.613 5.6836L169.613 5.68359L168.613 5.68359C168.613 25.7718 152.862 42 133.5 42V43ZM174.9 0V1H239V0V-1H174.9V0ZM169.613 5.68359H170.613C170.613 3.13442 172.539 1 174.9 1V0V-1C171.251 -1 168.613 2.22206 168.613 5.68359H169.613ZM92.0988 0V1C94.4606 1 96.3867 3.13469 96.3867 5.68359H97.3867H98.3867C98.3867 2.22186 95.7477 -1 92.0988 -1V0Z" fill="#1D1D1D" mask="url(#path-1-inside-1_820_940)"/>
</g>
<defs>
<filter id="filter0_d_820_940" x="0" y="0" width="268" height="149" filterUnits="userSpaceOnUse" color-interpolation-filters="sRGB">
<feFlood flood-opacity="0" result="BackgroundImageFix"/>
<feColorMatrix in="SourceAlpha" type="matrix" values="0 0 0 0 0 0 0 0 0 0 0 0 0 0 0 0 0 0 127 0" result="hardAlpha"/>
<feOffset dy="4"/>
<feGaussianBlur stdDeviation="2"/>
<feComposite in2="hardAlpha" operator="out"/>
<feColorMatrix type="matrix" values="0 0 0 0 1 0 0 0 0 1 0 0 0 0 1 0 0 0 0.25 0"/>
<feBlend mode="normal" in2="BackgroundImageFix" result="effect1_dropShadow_820_940"/>
<feBlend mode="normal" in="SourceGraphic" in2="effect1_dropShadow_820_940" result="shape"/>
</filter>
</defs>
</svg>
