<svg width="14" height="13" viewBox="0 0 14 13" fill="none" xmlns="http://www.w3.org/2000/svg">
<path fill-rule="evenodd" clip-rule="evenodd" d="M7.10281 4.79416C6.65391 5.05995 6.1324 5.20079 5.6 5.2C5.55614 5.19999 5.5123 5.19904 5.46849 5.19716L5.47522 5.2L4.35487 8.23737C5.10562 8.70374 5.6 9.49829 5.6 10.4C5.6 11.8359 4.34639 13 2.8 13C1.25361 13 0 11.8359 0 10.4C0 8.96407 1.25361 7.8 2.8 7.8C2.87612 7.8 2.95146 7.80284 3.02601 7.80837L4.08826 4.78888C3.31336 4.3264 2.8 3.51894 2.8 2.6C2.8 1.16407 4.05361 0 5.6 0C7.14639 0 8.4 1.16407 8.4 2.6C8.4 3.04769 8.27811 3.46905 8.06348 3.83695L9.76272 5.56822C10.1969 5.32655 10.6938 5.19926 11.2 5.2C12.7464 5.2 14 6.36407 14 7.8C14 9.23593 12.7464 10.4 11.2 10.4C9.65361 10.4 8.4 9.23593 8.4 7.8C8.39926 7.36381 8.51725 6.93452 8.743 6.552L7.10281 4.79416ZM2.8 11.7C3.57324 11.7 4.2 11.118 4.2 10.4C4.2 9.68199 3.57324 9.1 2.8 9.1C2.02676 9.1 1.4 9.68199 1.4 10.4C1.4 11.118 2.02676 11.7 2.8 11.7ZM5.6 3.9C6.37324 3.9 7 3.31801 7 2.6C7 1.88199 6.37324 1.3 5.6 1.3C4.82676 1.3 4.2 1.88199 4.2 2.6C4.2 3.31801 4.82676 3.9 5.6 3.9ZM11.2 9.1C11.9732 9.1 12.6 8.51801 12.6 7.8C12.6 7.08199 11.9732 6.5 11.2 6.5C10.4268 6.5 9.8 7.08199 9.8 7.8C9.8 8.51801 10.4268 9.1 11.2 9.1Z" fill="white" fill-opacity="0.86"/>
</svg>
