<svg width="14" height="19" viewBox="0 0 14 19" fill="none" xmlns="http://www.w3.org/2000/svg">
<path d="M6.66667 2.5V0L3.33333 3.33333L6.66667 6.66667V4.16667C9.42917 4.16667 11.6667 6.40417 11.6667 9.16667C11.6667 10.0125 11.4542 10.8042 11.0875 11.5042L12.3042 12.7208C12.95 11.6875 13.3333 10.475 13.3333 9.16667C13.3333 5.48333 10.35 2.5 6.66667 2.5ZM6.66667 14.1667C3.90417 14.1667 1.66667 11.9292 1.66667 9.16667C1.66667 8.32083 1.87917 7.52917 2.24583 6.82917L1.02917 5.6125C0.383333 6.64583 0 7.85833 0 9.16667C0 12.85 2.98333 15.8333 6.66667 15.8333V18.3333L10 15L6.66667 11.6667V14.1667Z" fill="black"/>
</svg>
