<svg width="19" height="17" viewBox="0 0 19 17" fill="none" xmlns="http://www.w3.org/2000/svg">
<path d="M13.2782 5.72873C13.871 6.50068 14.2222 7.46023 14.2222 8.50002C14.2222 9.53981 13.871 10.4993 13.2782 11.2713M15.1667 2.30312C16.9056 3.82544 18 6.03772 18 8.50002C18 10.9623 16.9056 13.1745 15.1667 14.6969M2.51111 5.72873H3.36224C3.88257 5.72873 4.14272 5.72873 4.3838 5.66528C4.59742 5.60907 4.79926 5.5166 4.98016 5.39208C5.18433 5.25155 5.35088 5.05606 5.68398 4.6651L8.16399 1.75423C8.57548 1.27127 8.78118 1.02979 8.96091 1.00466C9.11656 0.982891 9.27305 1.03832 9.37835 1.15249C9.5 1.28432 9.5 1.59866 9.5 2.22734V14.7726C9.5 15.4014 9.5 15.7157 9.37835 15.8475C9.27305 15.9617 9.11656 16.0171 8.96091 15.9953C8.78128 15.9702 8.57548 15.7287 8.16399 15.2458L5.68398 12.3349C5.35088 11.944 5.18433 11.7484 4.98016 11.6079C4.79926 11.4834 4.59742 11.3909 4.3838 11.3348C4.14272 11.2713 3.88257 11.2713 3.36224 11.2713H2.51111C1.98217 11.2713 1.7177 11.2713 1.51568 11.1706C1.33797 11.082 1.19349 10.9407 1.10293 10.7669C1 10.5693 1 10.3106 1 9.79329V7.20675C1 6.68935 1 6.43071 1.10293 6.2331C1.19349 6.05928 1.33797 5.91797 1.51568 5.82941C1.7177 5.72873 1.98217 5.72873 2.51111 5.72873Z" stroke="white" stroke-width="2" stroke-linecap="round" stroke-linejoin="round"/>
</svg>
