<svg width="15" height="15" viewBox="0 0 15 15" fill="none" xmlns="http://www.w3.org/2000/svg">
<path d="M7.5 2.44444C7.5 3.51833 6.62943 4.38889 5.55556 4.38889C4.48167 4.38889 3.61111 3.51833 3.61111 2.44444M7.5 2.44444C7.5 1.37056 6.62943 0.5 5.55556 0.5C4.48167 0.5 3.61111 1.37056 3.61111 2.44444M7.5 2.44444H14.5M3.61111 2.44444H0.5M12.9444 7.5C12.9444 8.57388 12.0739 9.44444 11 9.44444C9.92612 9.44444 9.05556 8.57388 9.05556 7.5M12.9444 7.5C12.9444 6.42612 12.0739 5.55556 11 5.55556C9.92612 5.55556 9.05556 6.42612 9.05556 7.5M12.9444 7.5H14.5M9.05556 7.5H0.5M5.94444 12.5556C5.94444 13.6294 5.07389 14.5 4 14.5C2.92611 14.5 2.05556 13.6294 2.05556 12.5556M5.94444 12.5556C5.94444 11.4817 5.07389 10.6111 4 10.6111C2.92611 10.6111 2.05556 11.4817 2.05556 12.5556M5.94444 12.5556H14.5M2.05556 12.5556H0.5" stroke="white" stroke-linecap="round" stroke-linejoin="round"/>
</svg>
