<svg width="16" height="19" viewBox="0 0 16 19" fill="none" xmlns="http://www.w3.org/2000/svg">
<path d="M8.00032 0C3.58863 0 0 4.24314 0 9.45777C0 14.6736 3.58863 18.9164 8.00032 18.9164C12.4113 18.9164 15.9999 14.6732 15.9999 9.45777C16 4.24277 12.4114 0 8.00032 0ZM8.00032 17.1614C4.40681 17.1614 1.4838 13.7055 1.4838 9.45785C1.4838 5.2097 4.40681 1.75435 8.00032 1.75435C11.5931 1.75435 14.5158 5.21015 14.5158 9.45785C14.5158 13.7055 11.5932 17.1614 8.00032 17.1614Z" fill="#3B82F6"/>
<path d="M6.70137 6.61254C6.61133 6.54608 6.51289 6.5127 6.41515 6.5127C6.28423 6.5127 6.15337 6.5721 6.04306 6.68811L4.64056 8.17668C4.56342 8.12341 4.47409 8.09041 4.3784 8.09041H3.1651C2.87958 8.09041 2.64746 8.36363 2.64746 8.7024V10.1369C2.64746 10.4749 2.87958 10.7493 3.1651 10.7493H4.3784C4.45586 10.7493 4.52883 10.7275 4.59448 10.692L6.04273 12.2276C6.23507 12.4323 6.4892 12.4612 6.70143 12.3039C6.91334 12.1479 7.04663 11.831 7.04663 11.4843V7.43296C7.04657 7.08713 6.91328 6.77059 6.70137 6.61254Z" fill="#3B82F6"/>
<path d="M6.41424 12.4421C6.27164 12.4421 6.13571 12.3777 6.0211 12.2556L4.58825 10.7364C4.51977 10.7701 4.44918 10.7872 4.37827 10.7872H3.16496C2.86186 10.7872 2.61523 10.4955 2.61523 10.1369V8.70242C2.61523 8.344 2.86186 8.05249 3.16496 8.05249H4.37827C4.46619 8.05249 4.55481 8.07935 4.63606 8.13034L6.02148 6.65991C6.13507 6.54048 6.27478 6.47485 6.41501 6.47485C6.51974 6.47485 6.6246 6.51135 6.71824 6.58047C6.94054 6.74633 7.07858 7.07296 7.07858 7.43306V11.4844C7.07858 11.8462 6.94054 12.1726 6.71824 12.3362C6.62454 12.4054 6.51936 12.4421 6.41424 12.4421ZM4.60012 10.6471L6.06403 12.1992C6.16671 12.3085 6.28781 12.3663 6.4143 12.3663C6.50735 12.3663 6.60067 12.3336 6.68422 12.2717C6.88792 12.1217 7.01441 11.8201 7.01441 11.4842V7.43298C7.01441 7.09868 6.88785 6.79656 6.68416 6.64466C6.60086 6.5832 6.50774 6.55065 6.41507 6.55065C6.28877 6.55065 6.16748 6.60801 6.06429 6.71643L4.64447 8.22328L4.62425 8.20932C4.54737 8.15628 4.46234 8.12829 4.37827 8.12829H3.16496C2.89722 8.12829 2.67941 8.3858 2.67941 8.70235V10.1368C2.67941 10.4536 2.89722 10.7112 3.16496 10.7112H4.37827C4.44661 10.7112 4.51483 10.6931 4.581 10.6573L4.60012 10.6471Z" fill="#3B82F6"/>
<path d="M9.98535 12.4485C9.87118 12.4485 9.75739 12.3969 9.67018 12.2941C9.49633 12.0882 9.49633 11.7547 9.67018 11.5488C10.6455 10.3962 10.6451 8.52019 9.67018 7.36752C9.49601 7.1616 9.49601 6.82813 9.67018 6.62221C9.84403 6.41629 10.1264 6.41629 10.3006 6.62221C11.6235 8.18627 11.6235 10.7305 10.3009 12.2937C10.2133 12.3969 10.0995 12.4485 9.98535 12.4485Z" fill="#3B82F6"/>
<path d="M8.64794 11.3368C8.53378 11.3368 8.41967 11.2852 8.33278 11.1824C8.15861 10.9765 8.15861 10.6431 8.33278 10.4371C8.55406 10.1759 8.67592 9.82841 8.67592 9.4583C8.67592 9.08895 8.55373 8.74107 8.33278 8.47946C8.15861 8.27354 8.15861 7.94007 8.33278 7.73415C8.50695 7.52823 8.78932 7.52823 8.96317 7.73415C9.35272 8.1947 9.56707 8.80715 9.56707 9.45792C9.56707 10.1095 9.35272 10.7215 8.96317 11.1821C8.8759 11.2852 8.76173 11.3368 8.64794 11.3368Z" fill="#3B82F6"/>
<path d="M11.3224 13.8991C11.2086 13.8991 11.0948 13.8475 11.0076 13.7448C10.8334 13.5388 10.8334 13.2054 11.0076 12.9994C11.8076 12.0536 12.2481 10.7965 12.2481 9.45821C12.2481 8.11988 11.8072 6.86243 11.0069 5.91659C10.833 5.71067 10.833 5.37721 11.0069 5.17129C11.1814 4.96537 11.4634 4.96537 11.6376 5.17129C12.6062 6.31644 13.1395 7.83846 13.1395 9.45821C13.1395 11.078 12.6066 12.6 11.6379 13.7443C11.5507 13.8475 11.4366 13.8991 11.3224 13.8991Z" fill="#3B82F6"/>
</svg>
