<svg width="16" height="16" viewBox="0 0 16 16" fill="none" xmlns="http://www.w3.org/2000/svg">
<path fill-rule="evenodd" clip-rule="evenodd" d="M7.99963 10.6667C6.53883 10.6667 5.35536 9.47307 5.35536 8C5.35536 6.52693 6.53883 5.33333 7.99963 5.33333C9.46043 5.33333 10.6444 6.52693 10.6444 8C10.6444 9.47307 9.46043 10.6667 7.99963 10.6667ZM15.4706 9.88587L14.2316 9.1648C14.301 8.78613 14.3468 8.39947 14.3468 8C14.3468 7.60107 14.301 7.21387 14.2316 6.83521L15.4706 6.11413C15.9767 5.81973 16.1495 5.16693 15.8572 4.65706L14.7996 2.8096C14.5079 2.29974 13.8604 2.12427 13.3548 2.41921L12.1031 3.1472C11.5186 2.64587 10.854 2.23573 10.1154 1.97173V1.06667C10.1154 0.477867 9.64176 0 9.05723 0H6.94203C6.35749 0 5.88389 0.477867 5.88389 1.06667V1.97173C5.14522 2.23573 4.48069 2.64587 3.89616 3.1472L2.64443 2.41921C2.13883 2.12427 1.49136 2.29974 1.19963 2.8096L0.142025 4.65706C-0.150242 5.16693 0.0230906 5.81973 0.528691 6.11413L1.76763 6.83521C1.69829 7.21387 1.65243 7.60107 1.65243 8C1.65243 8.39947 1.69829 8.78613 1.76763 9.1648L0.528691 9.88587C0.0230906 10.1803 -0.150242 10.8331 0.142025 11.3429L1.19963 13.1904C1.49136 13.7003 2.13883 13.8757 2.64443 13.5808L3.89616 12.8528C4.48069 13.3541 5.14522 13.7648 5.88389 14.0283V14.9333C5.88389 15.5221 6.35749 16 6.94203 16H9.05723C9.64176 16 10.1154 15.5221 10.1154 14.9333V14.0283C10.854 13.7648 11.5186 13.3541 12.1031 12.8528L13.3548 13.5808C13.8604 13.8757 14.5079 13.7003 14.7996 13.1904L15.8572 11.3429C16.1495 10.8331 15.9767 10.1803 15.4706 9.88587ZM7.99963 6.4C7.12336 6.4 6.41296 7.1168 6.41296 8C6.41296 8.88373 7.12336 9.6 7.99963 9.6C8.87589 9.6 9.58629 8.88373 9.58629 8C9.58629 7.1168 8.87589 6.4 7.99963 6.4Z" fill="white" fill-opacity="0.86"/>
</svg>
