<svg width="16" height="16" viewBox="0 0 16 16" fill="none" xmlns="http://www.w3.org/2000/svg">
<g clip-path="url(#clip0_541_3435)">
<path d="M6.47071 5.22279C6.43849 5.20376 6.39746 5.20276 6.36427 5.22182C6.33205 5.24038 6.31152 5.27554 6.31152 5.31363V7.99919V10.6852C6.31152 10.7238 6.33202 10.7585 6.36427 10.777C6.39749 10.7966 6.43849 10.7956 6.47071 10.7761L10.9707 8.09004C11.0029 8.07147 11.022 8.03682 11.022 7.99922C11.022 7.9626 11.003 7.92744 10.9707 7.90888L6.47071 5.22279Z" fill="white" fill-opacity="0.86"/>
<path d="M8 0C3.58203 0 0 3.58203 0 8C0 12.418 3.58203 16 8 16C12.418 16 16 12.418 16 8C16 3.58203 12.418 0 8 0ZM8 14C4.69141 14 2 11.3086 2 8C2 4.69141 4.69141 2 8 2C11.3086 2 14 4.69141 14 8C14 11.3086 11.3086 14 8 14Z" fill="white" fill-opacity="0.86"/>
</g>
<defs>
<clipPath id="clip0_541_3435">
<rect width="16" height="16" fill="white"/>
</clipPath>
</defs>
</svg>
